<svg viewBox="0 0 512 512" xml:space="preserve" xmlns="http://www.w3.org/2000/svg" fill-rule="evenodd" clip-rule="evenodd" stroke-linejoin="round" stroke-miterlimit="2"><path d="M256 0c141.29 0 256 114.71 256 256 0 141.29-114.71 256-256 256C114.71 512 0 397.29 0 256 0 114.71 114.71 0 256 0Zm170.667 256c0-20.66-16.768-37.427-37.427-37.427-10.18 0-19.163 3.892-25.75 10.48-25.45-18.265-60.781-30.241-99.705-31.738l17.066-79.944 55.392 11.677c.599 14.072 12.276 25.45 26.648 25.45 14.672 0 26.648-11.976 26.648-26.648 0-14.671-11.976-26.648-26.648-26.648-10.479 0-19.462 5.989-23.654 14.971l-61.979-13.174c-1.796-.3-3.593 0-5.09.898-1.497.898-2.395 2.395-2.994 4.192l-18.863 89.226c-39.822 1.197-75.453 12.874-101.202 31.738-6.587-6.288-15.869-10.48-25.75-10.48-20.66 0-37.427 16.767-37.427 37.427 0 15.27 8.983 28.145 22.157 34.133-.599 3.593-.898 7.486-.898 11.378 0 57.488 66.769 103.897 149.408 103.897 82.638 0 149.408-46.409 149.408-103.897 0-3.892-.299-7.485-.898-11.078 12.276-5.989 21.558-19.163 21.558-34.433Zm-107.191 97.011c-18.264 18.264-52.996 19.462-63.177 19.462-10.18 0-45.211-1.498-63.176-19.462-2.695-2.695-2.695-7.186 0-9.881 2.695-2.695 7.186-2.695 9.881 0 11.377 11.378 35.929 15.569 53.595 15.569 17.665 0 41.918-4.191 53.595-15.569 2.695-2.695 7.186-2.695 9.881 0 2.096 2.994 2.096 7.186-.599 9.881Zm-148.809-70.363c0-14.671 11.976-26.648 26.648-26.648 14.671 0 26.648 11.977 26.648 26.648s-11.977 26.648-26.648 26.648c-14.672 0-26.648-11.977-26.648-26.648Zm144.018 26.648c-14.671 0-26.648-11.977-26.648-26.648S300.014 256 314.685 256c14.672 0 26.648 11.977 26.648 26.648s-11.976 26.648-26.648 26.648Z" fill="#ffffff" class="fill-000000"></path></svg>