<svg width="32" height="24" viewBox="0 0 32 24" fill="none" xmlns="http://www.w3.org/2000/svg">
<path fill-rule="evenodd" clip-rule="evenodd" d="M0 1H5.7362C5.96168 1 6.15926 1.15091 6.21859 1.36844L10.3166 16.3947C10.4946 17.0473 11.0874 17.5 11.7638 17.5H24.6978C25.4009 17.5 26.0096 17.0117 26.1621 16.3254L26.9043 12.9854C29.7531 12.7784 32 10.4016 32 7.5C32 4.46243 29.5376 2 26.5 2C23.631 2 21.275 4.19675 21.0224 7H8.79099L7.18335 1.10532C7.00537 0.452732 6.41263 0 5.7362 0H0V1ZM21.0224 8C21.2567 10.5999 23.3002 12.6781 25.8843 12.9659L25.1859 16.1085C25.1351 16.3372 24.9322 16.5 24.6978 16.5H11.7638C11.5383 16.5 11.3407 16.3491 11.2814 16.1316L9.06372 8H21.0224ZM14.5 23C15.3284 23 16 22.3284 16 21.5C16 20.6716 15.3284 20 14.5 20C13.6716 20 13 20.6716 13 21.5C13 22.3284 13.6716 23 14.5 23ZM14.5 24C15.8807 24 17 22.8807 17 21.5C17 20.1193 15.8807 19 14.5 19C13.1193 19 12 20.1193 12 21.5C12 22.8807 13.1193 24 14.5 24ZM22.5 23C23.3284 23 24 22.3284 24 21.5C24 20.6716 23.3284 20 22.5 20C21.6716 20 21 20.6716 21 21.5C21 22.3284 21.6716 23 22.5 23ZM22.5 24C23.8807 24 25 22.8807 25 21.5C25 20.1193 23.8807 19 22.5 19C21.1193 19 20 20.1193 20 21.5C20 22.8807 21.1193 24 22.5 24ZM26.5 12C28.9853 12 31 9.98528 31 7.5C31 5.01472 28.9853 3 26.5 3C24.0147 3 22 5.01472 22 7.5C22 9.98528 24.0147 12 26.5 12ZM26 7V5H27V7H29V8H27V10H26V8H24V7H26Z" fill="black"/>
</svg>
